<svg viewBox="0 0 24 24" xmlns="http://www.w3.org/2000/svg"><path d="M12 2C6.49 2 2 6.49 2 12s4.49 10 10 10c1.38 0 2.5-1.12 2.5-2.5 0-.61-.23-1.2-.64-1.67-.08-.1-.13-.21-.13-.33 0-.28.22-.5.5-.5H16c3.31 0 6-2.69 6-6 0-4.96-4.49-9-10-9zm5.5 11c-.83 0-1.5-.67-1.5-1.5S16.67 10 17.5 10s1.5.67 1.5 1.5-.67 1.5-1.5 1.5zm-3-4C13.67 9 13 8.33 13 7.5S13.67 6 14.5 6s1.5.67 1.5 1.5S15.33 9 14.5 9zm-5 0C8.67 9 8 8.33 8 7.5S8.67 6 9.5 6s1.5.67 1.5 1.5S10.33 9 9.5 9zm-3 4c-.83 0-1.5-.67-1.5-1.5S5.67 10 6.5 10s1.5.67 1.5 1.5S7.33 13 6.5 13z" fill="#000"/></svg>
