<?xml version="1.0" encoding="utf-8"?>
<!-- Generator: Adobe Illustrator 28.2.0, SVG Export Plug-In . SVG Version: 6.00 Build 0)  -->
<svg version="1.1" id="Layer_1" xmlns="http://www.w3.org/2000/svg" xmlns:xlink="http://www.w3.org/1999/xlink" x="0px" y="0px"
	 viewBox="0 0 800 800" style="enable-background:new 0 0 800 800;" xml:space="preserve">
<style type="text/css">
	.st0{fill-rule:evenodd;clip-rule:evenodd;}
</style>
<path class="st0" d="M400,133.1c0,12.1,9.3,22.1,21.4,23.2c124.7,10.9,222.9,115.9,222.9,243.4C644.3,534.4,534.7,644,400,644
	S155.7,534.4,155.7,399.7c0-62.9,24.5-122.3,66.7-167.2c1.1-1.2,3.1-0.4,3.1,1.2v43.8c0,19.3,15.6,34.9,34.9,34.9h0
	c19.3,0,34.9-15.6,34.9-34.9V156.2c0-19.7-16-35.7-35.7-35.7H138.2c-19.3,0-34.9,15.6-34.9,34.9v0c0,19.3,15.6,34.9,34.9,34.9h23.6
	c1.5,0,2.4,1.8,1.3,3c-49.3,56.6-77.3,129.6-77.3,206.5c0,173.2,140.9,314.2,314.2,314.2s314.2-140.9,314.2-314.2
	c0-166.5-130.2-303.1-294.1-313.5c-6.6-0.4-18.3,2.9-20.1,17.7"/>
</svg>
